<?xml version="1.0" encoding="utf-8"?><!DOCTYPE svg PUBLIC "-//W3C//DTD SVG 1.1//EN" "http://www.w3.org/Graphics/SVG/1.1/DTD/svg11.dtd"><svg xmlns="http://www.w3.org/2000/svg" xml:space="preserve" xmlns:xlink="http://www.w3.org/1999/xlink" width="990" height="1155" viewBox="0 0 990 1155">
<defs><linearGradient id="pattern-mask" x1="0%" y1="0%" x2="12%" y2="100%" gradientUnits="userSpaceOnUse"><stop offset="0%" stop-color="#61d31e" /><stop offset="100%" stop-color="#8900d5" /></linearGradient>
<mask id="qrmask"><g fill="#ffffff"><g transform="scale(41.25)" fill="#fff"><path d="M22.7,0H1.3C0.6,0,0,0.6,0,1.3v25.3C0,27.4,0.6,28,1.3,28h21.3c0.7,0,1.3-0.6,1.3-1.3V1.3C24,0.6,23.4,0,22.7,0 z M23,22c0,0.6-0.5,1-1,1H2c-0.6,0-1-0.5-1-1V2c0-0.6,0.5-1,1-1h20c0.6,0,1,0.5,1,1V22z"/></g>
<g >
<g transform="translate(315,99) scale(4.12)"><path d="M0.8,0L0.8,0C2.2,0,6,4.6,6,6l0,0H0V0.8C0,0.4,0.4,0,0.8,0z"/></g>
<g transform="translate(483,99) scale(4.12)"><path d="M5.4,2.8C4.5,1.1,2.6-0.1,1.2,0c-1.3,0.1-1.6,1.6-0.7,3.2c1,1.7,2.8,2.9,4.2,2.8C6.1,5.9,6.4,4.4,5.4,2.8z"/></g>
<g transform="translate(555,99) scale(4.12)"><path d="M0,5.2L0,5.2C0,3.8,4.6,0,6,0l0,0v6H0.8C0.4,6,0,5.6,0,5.2z"/></g>
<g transform="translate(579,99) scale(4.12)"><rect width="6" height="6"/></g>
<g transform="translate(603,99) scale(4.12)"><path d="M6,0.8L6,0.8C6,2.2,1.4,6,0,6l0,0V0h5.2C5.6,0,6,0.4,6,0.8z"/></g>
<g transform="translate(651,99) scale(4.12)"><path d="M5.4,2.8C4.5,1.1,2.6-0.1,1.2,0c-1.3,0.1-1.6,1.6-0.7,3.2c1,1.7,2.8,2.9,4.2,2.8C6.1,5.9,6.4,4.4,5.4,2.8z"/></g>
<g transform="translate(315,123) scale(4.12)"><path d="M5.2,6L5.2,6C3.8,6,0,1.4,0,0l0,0h6v5.2C6,5.6,5.6,6,5.2,6z"/></g>
<g transform="translate(387,123) scale(4.12)"><path d="M0.8,0L0.8,0C2.2,0,6,4.6,6,6l0,0H0V0.8C0,0.4,0.4,0,0.8,0z"/></g>
<g transform="translate(459,123) scale(4.12)"><path d="M0.8,0L0.8,0C2.2,0,6,4.6,6,6l0,0H0V0.8C0,0.4,0.4,0,0.8,0z"/></g>
<g transform="translate(531,123) scale(4.12)"><path d="M5.4,2.8C4.5,1.1,2.6-0.1,1.2,0c-1.3,0.1-1.6,1.6-0.7,3.2c1,1.7,2.8,2.9,4.2,2.8C6.1,5.9,6.4,4.4,5.4,2.8z"/></g>
<g transform="translate(675,123) scale(4.12)"><path d="M0.8,0L0.8,0C2.2,0,6,4.6,6,6l0,0H0V0.8C0,0.4,0.4,0,0.8,0z"/></g>
<g transform="translate(291,147) scale(4.12)"><path d="M0.8,0L0.8,0C2.2,0,6,4.6,6,6l0,0H0V0.8C0,0.4,0.4,0,0.8,0z"/></g>
<g transform="translate(363,147) scale(4.12)"><path d="M0,5.2L0,5.2C0,3.8,4.6,0,6,0l0,0v6H0.8C0.4,6,0,5.6,0,5.2z"/></g>
<g transform="translate(387,147) scale(4.12)"><path d="M0,0h6v4c0,1.1-0.9,2-2,2H0V0z"/></g>
<g transform="translate(435,147) scale(4.12)"><path d="M0,5.2L0,5.2C0,3.8,4.6,0,6,0l0,0v6H0.8C0.4,6,0,5.6,0,5.2z"/></g>
<g transform="translate(459,147) scale(4.12)"><rect width="6" height="6"/></g>
<g transform="translate(483,147) scale(4.12)"><path d="M6,0.8L6,0.8C6,2.2,1.4,6,0,6l0,0V0h5.2C5.6,0,6,0.4,6,0.8z"/></g>
<g transform="translate(579,147) scale(4.12)"><path d="M5.4,2.8C4.5,1.1,2.6-0.1,1.2,0c-1.3,0.1-1.6,1.6-0.7,3.2c1,1.7,2.8,2.9,4.2,2.8C6.1,5.9,6.4,4.4,5.4,2.8z"/></g>
<g transform="translate(627,147) scale(4.12)"><path d="M5.4,2.8C4.5,1.1,2.6-0.1,1.2,0c-1.3,0.1-1.6,1.6-0.7,3.2c1,1.7,2.8,2.9,4.2,2.8C6.1,5.9,6.4,4.4,5.4,2.8z"/></g>
<g transform="translate(675,147) scale(4.12)"><path d="M5.2,6L5.2,6C3.8,6,0,1.4,0,0l0,0h6v5.2C6,5.6,5.6,6,5.2,6z"/></g>
<g transform="translate(291,171) scale(4.12)"><rect width="6" height="6"/></g>
<g transform="translate(531,171) scale(4.12)"><path d="M5.4,2.8C4.5,1.1,2.6-0.1,1.2,0c-1.3,0.1-1.6,1.6-0.7,3.2c1,1.7,2.8,2.9,4.2,2.8C6.1,5.9,6.4,4.4,5.4,2.8z"/></g>
<g transform="translate(603,171) scale(4.12)"><path d="M5.4,2.8C4.5,1.1,2.6-0.1,1.2,0c-1.3,0.1-1.6,1.6-0.7,3.2c1,1.7,2.8,2.9,4.2,2.8C6.1,5.9,6.4,4.4,5.4,2.8z"/></g>
<g transform="translate(651,171) scale(4.12)"><path d="M0.8,0L0.8,0C2.2,0,6,4.6,6,6l0,0H0V0.8C0,0.4,0.4,0,0.8,0z"/></g>
<g transform="translate(291,195) scale(4.12)"><rect width="6" height="6"/></g>
<g transform="translate(315,195) scale(4.12)"><path d="M0,6V0h4c1.1,0,2,0.9,2,2v4H0z"/></g>
<g transform="translate(435,195) scale(4.12)"><path d="M6,6H0V2c0-1.1,0.9-2,2-2h4V6z"/></g>
<g transform="translate(459,195) scale(4.12)"><rect width="6" height="6"/></g>
<g transform="translate(483,195) scale(4.12)"><path d="M6,0.8L6,0.8C6,2.2,1.4,6,0,6l0,0V0h5.2C5.6,0,6,0.4,6,0.8z"/></g>
<g transform="translate(579,195) scale(4.12)"><path d="M5.4,2.8C4.5,1.1,2.6-0.1,1.2,0c-1.3,0.1-1.6,1.6-0.7,3.2c1,1.7,2.8,2.9,4.2,2.8C6.1,5.9,6.4,4.4,5.4,2.8z"/></g>
<g transform="translate(651,195) scale(4.12)"><path d="M6,0v6H2C0.9,6,0,5.1,0,4V0H6z"/></g>
<g transform="translate(675,195) scale(4.12)"><path d="M0,6V0h4c1.1,0,2,0.9,2,2v4H0z"/></g>
<g transform="translate(291,219) scale(4.12)"><rect width="6" height="6"/></g>
<g transform="translate(315,219) scale(4.12)"><rect width="6" height="6"/></g>
<g transform="translate(339,219) scale(4.12)"><path d="M0,6V0h4c1.1,0,2,0.9,2,2v4H0z"/></g>
<g transform="translate(387,219) scale(4.12)"><path d="M0.8,0L0.8,0C2.2,0,6,4.6,6,6l0,0H0V0.8C0,0.4,0.4,0,0.8,0z"/></g>
<g transform="translate(435,219) scale(4.12)"><rect width="6" height="6"/></g>
<g transform="translate(507,219) scale(4.12)"><path d="M0,5.2L0,5.2C0,3.8,4.6,0,6,0l0,0v6H0.8C0.4,6,0,5.6,0,5.2z"/></g>
<g transform="translate(531,219) scale(4.12)"><rect width="6" height="6"/></g>
<g transform="translate(555,219) scale(4.12)"><path d="M6,0.8L6,0.8C6,2.2,1.4,6,0,6l0,0V0h5.2C5.6,0,6,0.4,6,0.8z"/></g>
<g transform="translate(627,219) scale(4.12)"><path d="M0.8,0L0.8,0C2.2,0,6,4.6,6,6l0,0H0V0.8C0,0.4,0.4,0,0.8,0z"/></g>
<g transform="translate(675,219) scale(4.12)"><rect width="6" height="6"/></g>
<g transform="translate(291,243) scale(4.12)"><rect width="6" height="6"/></g>
<g transform="translate(339,243) scale(4.12)"><rect width="6" height="6"/></g>
<g transform="translate(387,243) scale(4.12)"><rect width="6" height="6"/></g>
<g transform="translate(435,243) scale(4.12)"><rect width="6" height="6"/></g>
<g transform="translate(483,243) scale(4.12)"><path d="M0.8,0L0.8,0C2.2,0,6,4.6,6,6l0,0H0V0.8C0,0.4,0.4,0,0.8,0z"/></g>
<g transform="translate(531,243) scale(4.12)"><rect width="6" height="6"/></g>
<g transform="translate(579,243) scale(4.12)"><path d="M0.8,0L0.8,0C2.2,0,6,4.6,6,6l0,0H0V0.8C0,0.4,0.4,0,0.8,0z"/></g>
<g transform="translate(627,243) scale(4.12)"><rect width="6" height="6"/></g>
<g transform="translate(675,243) scale(4.12)"><rect width="6" height="6"/></g>
<g transform="translate(291,267) scale(4.12)"><path d="M5.2,6L5.2,6C3.8,6,0,1.4,0,0l0,0h6v5.2C6,5.6,5.6,6,5.2,6z"/></g>
<g transform="translate(339,267) scale(4.12)"><rect width="6" height="6"/></g>
<g transform="translate(363,267) scale(4.12)"><rect width="6" height="6"/></g>
<g transform="translate(387,267) scale(4.12)"><path d="M0,0h6v4c0,1.1-0.9,2-2,2H0V0z"/></g>
<g transform="translate(435,267) scale(4.12)"><path d="M5.2,6L5.2,6C3.8,6,0,1.4,0,0l0,0h6v5.2C6,5.6,5.6,6,5.2,6z"/></g>
<g transform="translate(483,267) scale(4.12)"><path d="M5.2,6L5.2,6C3.8,6,0,1.4,0,0l0,0h6v5.2C6,5.6,5.6,6,5.2,6z"/></g>
<g transform="translate(531,267) scale(4.12)"><rect width="6" height="6"/></g>
<g transform="translate(555,267) scale(4.12)"><rect width="6" height="6"/></g>
<g transform="translate(579,267) scale(4.12)"><rect width="6" height="6"/></g>
<g transform="translate(603,267) scale(4.12)"><rect width="6" height="6"/></g>
<g transform="translate(627,267) scale(4.12)"><rect width="6" height="6"/></g>
<g transform="translate(651,267) scale(4.12)"><rect width="6" height="6"/></g>
<g transform="translate(675,267) scale(4.12)"><rect width="6" height="6"/></g>
<g transform="translate(99,291) scale(4.12)"><path d="M5.4,2.8C4.5,1.1,2.6-0.1,1.2,0c-1.3,0.1-1.6,1.6-0.7,3.2c1,1.7,2.8,2.9,4.2,2.8C6.1,5.9,6.4,4.4,5.4,2.8z"/></g>
<g transform="translate(147,291) scale(4.12)"><path d="M0,5.2L0,5.2C0,3.8,4.6,0,6,0l0,0v6H0.8C0.4,6,0,5.6,0,5.2z"/></g>
<g transform="translate(171,291) scale(4.12)"><rect width="6" height="6"/></g>
<g transform="translate(195,291) scale(4.12)"><rect width="6" height="6"/></g>
<g transform="translate(219,291) scale(4.12)"><rect width="6" height="6"/></g>
<g transform="translate(243,291) scale(4.12)"><path d="M6,0.8L6,0.8C6,2.2,1.4,6,0,6l0,0V0h5.2C5.6,0,6,0.4,6,0.8z"/></g>
<g transform="translate(339,291) scale(4.12)"><path d="M5.2,6L5.2,6C3.8,6,0,1.4,0,0l0,0h6v5.2C6,5.6,5.6,6,5.2,6z"/></g>
<g transform="translate(411,291) scale(4.12)"><path d="M0.8,0L0.8,0C2.2,0,6,4.6,6,6l0,0H0V0.8C0,0.4,0.4,0,0.8,0z"/></g>
<g transform="translate(507,291) scale(4.12)"><path d="M6,6H0V2c0-1.1,0.9-2,2-2h4V6z"/></g>
<g transform="translate(531,291) scale(4.12)"><rect width="6" height="6"/></g>
<g transform="translate(555,291) scale(4.12)"><rect width="6" height="6"/></g>
<g transform="translate(627,291) scale(4.12)"><rect width="6" height="6"/></g>
<g transform="translate(651,291) scale(4.12)"><rect width="6" height="6"/></g>
<g transform="translate(675,291) scale(4.12)"><path d="M0,0h6v4c0,1.1-0.9,2-2,2H0V0z"/></g>
<g transform="translate(723,291) scale(4.12)"><path d="M6,6H0V2c0-1.1,0.9-2,2-2h4V6z"/></g>
<g transform="translate(747,291) scale(4.12)"><rect width="6" height="6"/></g>
<g transform="translate(771,291) scale(4.12)"><rect width="6" height="6"/></g>
<g transform="translate(795,291) scale(4.12)"><rect width="6" height="6"/></g>
<g transform="translate(819,291) scale(4.12)"><path d="M0,6V0h4c1.1,0,2,0.9,2,2v4H0z"/></g>
<g transform="translate(123,315) scale(4.12)"><path d="M5.4,2.8C4.5,1.1,2.6-0.1,1.2,0c-1.3,0.1-1.6,1.6-0.7,3.2c1,1.7,2.8,2.9,4.2,2.8C6.1,5.9,6.4,4.4,5.4,2.8z"/></g>
<g transform="translate(219,315) scale(4.12)"><rect width="6" height="6"/></g>
<g transform="translate(291,315) scale(4.12)"><path d="M6,6H0V2c0-1.1,0.9-2,2-2h4V6z"/></g>
<g transform="translate(315,315) scale(4.12)"><path d="M6,0.8L6,0.8C6,2.2,1.4,6,0,6l0,0V0h5.2C5.6,0,6,0.4,6,0.8z"/></g>
<g transform="translate(387,315) scale(4.12)"><path d="M6,6H0V2c0-1.1,0.9-2,2-2h4V6z"/></g>
<g transform="translate(411,315) scale(4.12)"><rect width="6" height="6"/></g>
<g transform="translate(483,315) scale(4.12)"><path d="M6,6H0V2c0-1.1,0.9-2,2-2h4V6z"/></g>
<g transform="translate(507,315) scale(4.12)"><rect width="6" height="6"/></g>
<g transform="translate(531,315) scale(4.12)"><rect width="6" height="6"/></g>
<g transform="translate(555,315) scale(4.12)"><rect width="6" height="6"/></g>
<g transform="translate(579,315) scale(4.12)"><rect width="6" height="6"/></g>
<g transform="translate(603,315) scale(4.12)"><rect width="6" height="6"/></g>
<g transform="translate(627,315) scale(4.12)"><rect width="6" height="6"/></g>
<g transform="translate(651,315) scale(4.12)"><path d="M0,0h6v4c0,1.1-0.9,2-2,2H0V0z"/></g>
<g transform="translate(723,315) scale(4.12)"><path d="M5.2,6L5.2,6C3.8,6,0,1.4,0,0l0,0h6v5.2C6,5.6,5.6,6,5.2,6z"/></g>
<g transform="translate(795,315) scale(4.12)"><path d="M6,0v6H2C0.9,6,0,5.1,0,4V0H6z"/></g>
<g transform="translate(819,315) scale(4.12)"><rect width="6" height="6"/></g>
<g transform="translate(843,315) scale(4.12)"><rect width="6" height="6"/></g>
<g transform="translate(867,315) scale(4.12)"><path d="M6,0.8L6,0.8C6,2.2,1.4,6,0,6l0,0V0h5.2C5.6,0,6,0.4,6,0.8z"/></g>
<g transform="translate(195,339) scale(4.12)"><path d="M6,6H0V2c0-1.1,0.9-2,2-2h4V6z"/></g>
<g transform="translate(219,339) scale(4.12)"><rect width="6" height="6"/></g>
<g transform="translate(243,339) scale(4.12)"><path d="M6,0.8L6,0.8C6,2.2,1.4,6,0,6l0,0V0h5.2C5.6,0,6,0.4,6,0.8z"/></g>
<g transform="translate(291,339) scale(4.12)"><path d="M5.2,6L5.2,6C3.8,6,0,1.4,0,0l0,0h6v5.2C6,5.6,5.6,6,5.2,6z"/></g>
<g transform="translate(363,339) scale(4.12)"><path d="M6,6H0V2c0-1.1,0.9-2,2-2h4V6z"/></g>
<g transform="translate(387,339) scale(4.12)"><rect width="6" height="6"/></g>
<g transform="translate(411,339) scale(4.12)"><rect width="6" height="6"/></g>
<g transform="translate(435,339) scale(4.12)"><rect width="6" height="6"/></g>
<g transform="translate(459,339) scale(4.12)"><rect width="6" height="6"/></g>
<g transform="translate(483,339) scale(4.12)"><rect width="6" height="6"/></g>
<g transform="translate(507,339) scale(4.12)"><rect width="6" height="6"/></g>
<g transform="translate(579,339) scale(4.12)"><path d="M5.2,6L5.2,6C3.8,6,0,1.4,0,0l0,0h6v5.2C6,5.6,5.6,6,5.2,6z"/></g>
<g transform="translate(627,339) scale(4.12)"><path d="M5.2,6L5.2,6C3.8,6,0,1.4,0,0l0,0h6v5.2C6,5.6,5.6,6,5.2,6z"/></g>
<g transform="translate(675,339) scale(4.12)"><path d="M0,5.2L0,5.2C0,3.8,4.6,0,6,0l0,0v6H0.8C0.4,6,0,5.6,0,5.2z"/></g>
<g transform="translate(699,339) scale(4.12)"><path d="M0,6V0h4c1.1,0,2,0.9,2,2v4H0z"/></g>
<g transform="translate(771,339) scale(4.12)"><path d="M0.8,0L0.8,0C2.2,0,6,4.6,6,6l0,0H0V0.8C0,0.4,0.4,0,0.8,0z"/></g>
<g transform="translate(819,339) scale(4.12)"><rect width="6" height="6"/></g>
<g transform="translate(843,339) scale(4.12)"><path d="M0,0h6v4c0,1.1-0.9,2-2,2H0V0z"/></g>
<g transform="translate(123,363) scale(4.12)"><path d="M0.8,0L0.8,0C2.2,0,6,4.6,6,6l0,0H0V0.8C0,0.4,0.4,0,0.8,0z"/></g>
<g transform="translate(195,363) scale(4.12)"><rect width="6" height="6"/></g>
<g transform="translate(267,363) scale(4.12)"><path d="M5.4,2.8C4.5,1.1,2.6-0.1,1.2,0c-1.3,0.1-1.6,1.6-0.7,3.2c1,1.7,2.8,2.9,4.2,2.8C6.1,5.9,6.4,4.4,5.4,2.8z"/></g>
<g transform="translate(339,363) scale(4.12)"><path d="M6,6H0V2c0-1.1,0.9-2,2-2h4V6z"/></g>
<g transform="translate(363,363) scale(4.12)"><path d="M0,0h6v4c0,1.1-0.9,2-2,2H0V0z"/></g>
<g transform="translate(411,363) scale(4.12)"><path d="M5.2,6L5.2,6C3.8,6,0,1.4,0,0l0,0h6v5.2C6,5.6,5.6,6,5.2,6z"/></g>
<g transform="translate(459,363) scale(4.12)"><path d="M5.2,6L5.2,6C3.8,6,0,1.4,0,0l0,0h6v5.2C6,5.6,5.6,6,5.2,6z"/></g>
<g transform="translate(507,363) scale(4.12)"><path d="M6,0v6H2C0.9,6,0,5.1,0,4V0H6z"/></g>
<g transform="translate(531,363) scale(4.12)"><rect width="6" height="6"/></g>
<g transform="translate(555,363) scale(4.12)"><path d="M6,0.8L6,0.8C6,2.2,1.4,6,0,6l0,0V0h5.2C5.6,0,6,0.4,6,0.8z"/></g>
<g transform="translate(699,363) scale(4.12)"><rect width="6" height="6"/></g>
<g transform="translate(771,363) scale(4.12)"><rect width="6" height="6"/></g>
<g transform="translate(795,363) scale(4.12)"><rect width="6" height="6"/></g>
<g transform="translate(819,363) scale(4.12)"><path d="M0,0h6v4c0,1.1-0.9,2-2,2H0V0z"/></g>
<g transform="translate(99,387) scale(4.12)"><path d="M6,6H0V2c0-1.1,0.9-2,2-2h4V6z"/></g>
<g transform="translate(123,387) scale(4.12)"><rect width="6" height="6"/></g>
<g transform="translate(147,387) scale(4.12)"><path d="M0,6V0h4c1.1,0,2,0.9,2,2v4H0z"/></g>
<g transform="translate(195,387) scale(4.12)"><rect width="6" height="6"/></g>
<g transform="translate(243,387) scale(4.12)"><path d="M5.4,2.8C4.5,1.1,2.6-0.1,1.2,0c-1.3,0.1-1.6,1.6-0.7,3.2c1,1.7,2.8,2.9,4.2,2.8C6.1,5.9,6.4,4.4,5.4,2.8z"/></g>
<g transform="translate(291,387) scale(4.12)"><path d="M0.8,0L0.8,0C2.2,0,6,4.6,6,6l0,0H0V0.8C0,0.4,0.4,0,0.8,0z"/></g>
<g transform="translate(339,387) scale(4.12)"><rect width="6" height="6"/></g>
<g transform="translate(387,387) scale(4.12)"><path d="M0.8,0L0.8,0C2.2,0,6,4.6,6,6l0,0H0V0.8C0,0.4,0.4,0,0.8,0z"/></g>
<g transform="translate(435,387) scale(4.12)"><path d="M5.4,2.8C4.5,1.1,2.6-0.1,1.2,0c-1.3,0.1-1.6,1.6-0.7,3.2c1,1.7,2.8,2.9,4.2,2.8C6.1,5.9,6.4,4.4,5.4,2.8z"/></g>
<g transform="translate(483,387) scale(4.12)"><path d="M5.4,2.8C4.5,1.1,2.6-0.1,1.2,0c-1.3,0.1-1.6,1.6-0.7,3.2c1,1.7,2.8,2.9,4.2,2.8C6.1,5.9,6.4,4.4,5.4,2.8z"/></g>
<g transform="translate(579,387) scale(4.12)"><path d="M5.4,2.8C4.5,1.1,2.6-0.1,1.2,0c-1.3,0.1-1.6,1.6-0.7,3.2c1,1.7,2.8,2.9,4.2,2.8C6.1,5.9,6.4,4.4,5.4,2.8z"/></g>
<g transform="translate(627,387) scale(4.12)"><path d="M6,6H0V2c0-1.1,0.9-2,2-2h4V6z"/></g>
<g transform="translate(651,387) scale(4.12)"><rect width="6" height="6"/></g>
<g transform="translate(675,387) scale(4.12)"><rect width="6" height="6"/></g>
<g transform="translate(699,387) scale(4.12)"><path d="M0,0h6v4c0,1.1-0.9,2-2,2H0V0z"/></g>
<g transform="translate(747,387) scale(4.12)"><path d="M0,5.2L0,5.2C0,3.8,4.6,0,6,0l0,0v6H0.8C0.4,6,0,5.6,0,5.2z"/></g>
<g transform="translate(771,387) scale(4.12)"><rect width="6" height="6"/></g>
<g transform="translate(795,387) scale(4.12)"><path d="M0,0h6v4c0,1.1-0.9,2-2,2H0V0z"/></g>
<g transform="translate(867,387) scale(4.12)"><path d="M0.8,0L0.8,0C2.2,0,6,4.6,6,6l0,0H0V0.8C0,0.4,0.4,0,0.8,0z"/></g>
<g transform="translate(99,411) scale(4.12)"><rect width="6" height="6"/></g>
<g transform="translate(147,411) scale(4.12)"><path d="M6,0v6H2C0.9,6,0,5.1,0,4V0H6z"/></g>
<g transform="translate(171,411) scale(4.12)"><rect width="6" height="6"/></g>
<g transform="translate(195,411) scale(4.12)"><rect width="6" height="6"/></g>
<g transform="translate(219,411) scale(4.12)"><path d="M0,6V0h4c1.1,0,2,0.9,2,2v4H0z"/></g>
<g transform="translate(291,411) scale(4.12)"><rect width="6" height="6"/></g>
<g transform="translate(315,411) scale(4.12)"><rect width="6" height="6"/></g>
<g transform="translate(339,411) scale(4.12)"><path d="M0,0h6v4c0,1.1-0.9,2-2,2H0V0z"/></g>
<g transform="translate(387,411) scale(4.12)"><rect width="6" height="6"/></g>
<g transform="translate(411,411) scale(4.12)"><path d="M0,6V0h4c1.1,0,2,0.9,2,2v4H0z"/></g>
<g transform="translate(459,411) scale(4.12)"><path d="M0.8,0L0.8,0C2.2,0,6,4.6,6,6l0,0H0V0.8C0,0.4,0.4,0,0.8,0z"/></g>
<g transform="translate(507,411) scale(4.12)"><path d="M6,6H0V2c0-1.1,0.9-2,2-2h4V6z"/></g>
<g transform="translate(531,411) scale(4.12)"><path d="M6,0.8L6,0.8C6,2.2,1.4,6,0,6l0,0V0h5.2C5.6,0,6,0.4,6,0.8z"/></g>
<g transform="translate(603,411) scale(4.12)"><path d="M0,5.2L0,5.2C0,3.8,4.6,0,6,0l0,0v6H0.8C0.4,6,0,5.6,0,5.2z"/></g>
<g transform="translate(627,411) scale(4.12)"><path d="M0,0h6v4c0,1.1-0.9,2-2,2H0V0z"/></g>
<g transform="translate(723,411) scale(4.12)"><path d="M0.8,0L0.8,0C2.2,0,6,4.6,6,6l0,0H0V0.8C0,0.4,0.4,0,0.8,0z"/></g>
<g transform="translate(819,411) scale(4.12)"><path d="M6,6H0V2c0-1.1,0.9-2,2-2h4V6z"/></g>
<g transform="translate(843,411) scale(4.12)"><rect width="6" height="6"/></g>
<g transform="translate(867,411) scale(4.12)"><path d="M0,0h6v4c0,1.1-0.9,2-2,2H0V0z"/></g>
<g transform="translate(99,435) scale(4.12)"><rect width="6" height="6"/></g>
<g transform="translate(195,435) scale(4.12)"><path d="M6,0v6H2C0.9,6,0,5.1,0,4V0H6z"/></g>
<g transform="translate(219,435) scale(4.12)"><rect width="6" height="6"/></g>
<g transform="translate(243,435) scale(4.12)"><rect width="6" height="6"/></g>
<g transform="translate(267,435) scale(4.12)"><rect width="6" height="6"/></g>
<g transform="translate(291,435) scale(4.12)"><rect width="6" height="6"/></g>
<g transform="translate(315,435) scale(4.12)"><path d="M0,0h6v4c0,1.1-0.9,2-2,2H0V0z"/></g>
<g transform="translate(363,435) scale(4.12)"><path d="M6,6H0V2c0-1.1,0.9-2,2-2h4V6z"/></g>
<g transform="translate(387,435) scale(4.12)"><rect width="6" height="6"/></g>
<g transform="translate(411,435) scale(4.12)"><rect width="6" height="6"/></g>
<g transform="translate(459,435) scale(4.12)"><rect width="6" height="6"/></g>
<g transform="translate(483,435) scale(4.12)"><rect width="6" height="6"/></g>
<g transform="translate(507,435) scale(4.12)"><path d="M0,0h6v4c0,1.1-0.9,2-2,2H0V0z"/></g>
<g transform="translate(579,435) scale(4.12)"><path d="M5.4,2.8C4.5,1.1,2.6-0.1,1.2,0c-1.3,0.1-1.6,1.6-0.7,3.2c1,1.7,2.8,2.9,4.2,2.8C6.1,5.9,6.4,4.4,5.4,2.8z"/></g>
<g transform="translate(651,435) scale(4.12)"><path d="M0,5.2L0,5.2C0,3.8,4.6,0,6,0l0,0v6H0.8C0.4,6,0,5.6,0,5.2z"/></g>
<g transform="translate(675,435) scale(4.12)"><rect width="6" height="6"/></g>
<g transform="translate(699,435) scale(4.12)"><rect width="6" height="6"/></g>
<g transform="translate(723,435) scale(4.12)"><path d="M0,0h6v4c0,1.1-0.9,2-2,2H0V0z"/></g>
<g transform="translate(771,435) scale(4.12)"><path d="M0.8,0L0.8,0C2.2,0,6,4.6,6,6l0,0H0V0.8C0,0.4,0.4,0,0.8,0z"/></g>
<g transform="translate(819,435) scale(4.12)"><rect width="6" height="6"/></g>
<g transform="translate(843,435) scale(4.12)"><path d="M0,0h6v4c0,1.1-0.9,2-2,2H0V0z"/></g>
<g transform="translate(99,459) scale(4.12)"><rect width="6" height="6"/></g>
<g transform="translate(219,459) scale(4.12)"><rect width="6" height="6"/></g>
<g transform="translate(267,459) scale(4.12)"><rect width="6" height="6"/></g>
<g transform="translate(291,459) scale(4.12)"><rect width="6" height="6"/></g>
<g transform="translate(363,459) scale(4.12)"><path d="M5.2,6L5.2,6C3.8,6,0,1.4,0,0l0,0h6v5.2C6,5.6,5.6,6,5.2,6z"/></g>
<g transform="translate(411,459) scale(4.12)"><path d="M6,0v6H2C0.9,6,0,5.1,0,4V0H6z"/></g>
<g transform="translate(435,459) scale(4.12)"><rect width="6" height="6"/></g>
<g transform="translate(459,459) scale(4.12)"><rect width="6" height="6"/></g>
<g transform="translate(603,459) scale(4.12)"><path d="M0,5.2L0,5.2C0,3.8,4.6,0,6,0l0,0v6H0.8C0.4,6,0,5.6,0,5.2z"/></g>
<g transform="translate(627,459) scale(4.12)"><path d="M0,6V0h4c1.1,0,2,0.9,2,2v4H0z"/></g>
<g transform="translate(675,459) scale(4.12)"><rect width="6" height="6"/></g>
<g transform="translate(747,459) scale(4.12)"><path d="M6,6H0V2c0-1.1,0.9-2,2-2h4V6z"/></g>
<g transform="translate(771,459) scale(4.12)"><rect width="6" height="6"/></g>
<g transform="translate(819,459) scale(4.12)"><path d="M5.2,6L5.2,6C3.8,6,0,1.4,0,0l0,0h6v5.2C6,5.6,5.6,6,5.2,6z"/></g>
<g transform="translate(99,483) scale(4.12)"><rect width="6" height="6"/></g>
<g transform="translate(123,483) scale(4.12)"><path d="M6,0.8L6,0.8C6,2.2,1.4,6,0,6l0,0V0h5.2C5.6,0,6,0.4,6,0.8z"/></g>
<g transform="translate(171,483) scale(4.12)"><path d="M5.4,2.8C4.5,1.1,2.6-0.1,1.2,0c-1.3,0.1-1.6,1.6-0.7,3.2c1,1.7,2.8,2.9,4.2,2.8C6.1,5.9,6.4,4.4,5.4,2.8z"/></g>
<g transform="translate(219,483) scale(4.12)"><path d="M6,0v6H2C0.9,6,0,5.1,0,4V0H6z"/></g>
<g transform="translate(243,483) scale(4.12)"><rect width="6" height="6"/></g>
<g transform="translate(267,483) scale(4.12)"><rect width="6" height="6"/></g>
<g transform="translate(291,483) scale(4.12)"><rect width="6" height="6"/></g>
<g transform="translate(315,483) scale(4.12)"><path d="M0,6V0h4c1.1,0,2,0.9,2,2v4H0z"/></g>
<g transform="translate(435,483) scale(4.12)"><rect width="6" height="6"/></g>
<g transform="translate(459,483) scale(4.12)"><path d="M0,0h6v4c0,1.1-0.9,2-2,2H0V0z"/></g>
<g transform="translate(507,483) scale(4.12)"><path d="M5.4,2.8C4.5,1.1,2.6-0.1,1.2,0c-1.3,0.1-1.6,1.6-0.7,3.2c1,1.7,2.8,2.9,4.2,2.8C6.1,5.9,6.4,4.4,5.4,2.8z"/></g>
<g transform="translate(627,483) scale(4.12)"><rect width="6" height="6"/></g>
<g transform="translate(651,483) scale(4.12)"><rect width="6" height="6"/></g>
<g transform="translate(675,483) scale(4.12)"><rect width="6" height="6"/></g>
<g transform="translate(699,483) scale(4.12)"><path d="M6,0.8L6,0.8C6,2.2,1.4,6,0,6l0,0V0h5.2C5.6,0,6,0.4,6,0.8z"/></g>
<g transform="translate(747,483) scale(4.12)"><rect width="6" height="6"/></g>
<g transform="translate(771,483) scale(4.12)"><rect width="6" height="6"/></g>
<g transform="translate(795,483) scale(4.12)"><path d="M0,6V0h4c1.1,0,2,0.9,2,2v4H0z"/></g>
<g transform="translate(867,483) scale(4.12)"><path d="M0.8,0L0.8,0C2.2,0,6,4.6,6,6l0,0H0V0.8C0,0.4,0.4,0,0.8,0z"/></g>
<g transform="translate(99,507) scale(4.12)"><rect width="6" height="6"/></g>
<g transform="translate(147,507) scale(4.12)"><path d="M5.4,2.8C4.5,1.1,2.6-0.1,1.2,0c-1.3,0.1-1.6,1.6-0.7,3.2c1,1.7,2.8,2.9,4.2,2.8C6.1,5.9,6.4,4.4,5.4,2.8z"/></g>
<g transform="translate(195,507) scale(4.12)"><path d="M5.4,2.8C4.5,1.1,2.6-0.1,1.2,0c-1.3,0.1-1.6,1.6-0.7,3.2c1,1.7,2.8,2.9,4.2,2.8C6.1,5.9,6.4,4.4,5.4,2.8z"/></g>
<g transform="translate(315,507) scale(4.12)"><rect width="6" height="6"/></g>
<g transform="translate(339,507) scale(4.12)"><rect width="6" height="6"/></g>
<g transform="translate(363,507) scale(4.12)"><rect width="6" height="6"/></g>
<g transform="translate(387,507) scale(4.12)"><path d="M0,6V0h4c1.1,0,2,0.9,2,2v4H0z"/></g>
<g transform="translate(435,507) scale(4.12)"><rect width="6" height="6"/></g>
<g transform="translate(483,507) scale(4.12)"><path d="M5.4,2.8C4.5,1.1,2.6-0.1,1.2,0c-1.3,0.1-1.6,1.6-0.7,3.2c1,1.7,2.8,2.9,4.2,2.8C6.1,5.9,6.4,4.4,5.4,2.8z"/></g>
<g transform="translate(555,507) scale(4.12)"><path d="M0,5.2L0,5.2C0,3.8,4.6,0,6,0l0,0v6H0.8C0.4,6,0,5.6,0,5.2z"/></g>
<g transform="translate(579,507) scale(4.12)"><rect width="6" height="6"/></g>
<g transform="translate(603,507) scale(4.12)"><rect width="6" height="6"/></g>
<g transform="translate(627,507) scale(4.12)"><rect width="6" height="6"/></g>
<g transform="translate(651,507) scale(4.12)"><path d="M0,0h6v4c0,1.1-0.9,2-2,2H0V0z"/></g>
<g transform="translate(723,507) scale(4.12)"><path d="M6,6H0V2c0-1.1,0.9-2,2-2h4V6z"/></g>
<g transform="translate(747,507) scale(4.12)"><path d="M0,0h6v4c0,1.1-0.9,2-2,2H0V0z"/></g>
<g transform="translate(795,507) scale(4.12)"><path d="M6,0v6H2C0.9,6,0,5.1,0,4V0H6z"/></g>
<g transform="translate(819,507) scale(4.12)"><path d="M0,6V0h4c1.1,0,2,0.9,2,2v4H0z"/></g>
<g transform="translate(867,507) scale(4.12)"><path d="M5.2,6L5.2,6C3.8,6,0,1.4,0,0l0,0h6v5.2C6,5.6,5.6,6,5.2,6z"/></g>
<g transform="translate(99,531) scale(4.12)"><path d="M5.2,6L5.2,6C3.8,6,0,1.4,0,0l0,0h6v5.2C6,5.6,5.6,6,5.2,6z"/></g>
<g transform="translate(219,531) scale(4.12)"><path d="M6,6H0V2c0-1.1,0.9-2,2-2h4V6z"/></g>
<g transform="translate(243,531) scale(4.12)"><path d="M6,0.8L6,0.8C6,2.2,1.4,6,0,6l0,0V0h5.2C5.6,0,6,0.4,6,0.8z"/></g>
<g transform="translate(291,531) scale(4.12)"><path d="M0,5.2L0,5.2C0,3.8,4.6,0,6,0l0,0v6H0.8C0.4,6,0,5.6,0,5.2z"/></g>
<g transform="translate(315,531) scale(4.12)"><rect width="6" height="6"/></g>
<g transform="translate(339,531) scale(4.12)"><path d="M0,0h6v4c0,1.1-0.9,2-2,2H0V0z"/></g>
<g transform="translate(387,531) scale(4.12)"><rect width="6" height="6"/></g>
<g transform="translate(411,531) scale(4.12)"><rect width="6" height="6"/></g>
<g transform="translate(435,531) scale(4.12)"><rect width="6" height="6"/></g>
<g transform="translate(459,531) scale(4.12)"><path d="M6,0.8L6,0.8C6,2.2,1.4,6,0,6l0,0V0h5.2C5.6,0,6,0.4,6,0.8z"/></g>
<g transform="translate(531,531) scale(4.12)"><path d="M5.4,2.8C4.5,1.1,2.6-0.1,1.2,0c-1.3,0.1-1.6,1.6-0.7,3.2c1,1.7,2.8,2.9,4.2,2.8C6.1,5.9,6.4,4.4,5.4,2.8z"/></g>
<g transform="translate(603,531) scale(4.12)"><path d="M5.2,6L5.2,6C3.8,6,0,1.4,0,0l0,0h6v5.2C6,5.6,5.6,6,5.2,6z"/></g>
<g transform="translate(699,531) scale(4.12)"><path d="M0,5.2L0,5.2C0,3.8,4.6,0,6,0l0,0v6H0.8C0.4,6,0,5.6,0,5.2z"/></g>
<g transform="translate(723,531) scale(4.12)"><rect width="6" height="6"/></g>
<g transform="translate(771,531) scale(4.12)"><path d="M0.8,0L0.8,0C2.2,0,6,4.6,6,6l0,0H0V0.8C0,0.4,0.4,0,0.8,0z"/></g>
<g transform="translate(819,531) scale(4.12)"><rect width="6" height="6"/></g>
<g transform="translate(843,531) scale(4.12)"><path d="M6,0.8L6,0.8C6,2.2,1.4,6,0,6l0,0V0h5.2C5.6,0,6,0.4,6,0.8z"/></g>
<g transform="translate(123,555) scale(4.12)"><path d="M5.4,2.8C4.5,1.1,2.6-0.1,1.2,0c-1.3,0.1-1.6,1.6-0.7,3.2c1,1.7,2.8,2.9,4.2,2.8C6.1,5.9,6.4,4.4,5.4,2.8z"/></g>
<g transform="translate(219,555) scale(4.12)"><rect width="6" height="6"/></g>
<g transform="translate(267,555) scale(4.12)"><path d="M5.4,2.8C4.5,1.1,2.6-0.1,1.2,0c-1.3,0.1-1.6,1.6-0.7,3.2c1,1.7,2.8,2.9,4.2,2.8C6.1,5.9,6.4,4.4,5.4,2.8z"/></g>
<g transform="translate(387,555) scale(4.12)"><path d="M6,0v6H2C0.9,6,0,5.1,0,4V0H6z"/></g>
<g transform="translate(411,555) scale(4.12)"><rect width="6" height="6"/></g>
<g transform="translate(435,555) scale(4.12)"><rect width="6" height="6"/></g>
<g transform="translate(483,555) scale(4.12)"><path d="M5.4,2.8C4.5,1.1,2.6-0.1,1.2,0c-1.3,0.1-1.6,1.6-0.7,3.2c1,1.7,2.8,2.9,4.2,2.8C6.1,5.9,6.4,4.4,5.4,2.8z"/></g>
<g transform="translate(555,555) scale(4.12)"><path d="M5.4,2.8C4.5,1.1,2.6-0.1,1.2,0c-1.3,0.1-1.6,1.6-0.7,3.2c1,1.7,2.8,2.9,4.2,2.8C6.1,5.9,6.4,4.4,5.4,2.8z"/></g>
<g transform="translate(627,555) scale(4.12)"><path d="M0.8,0L0.8,0C2.2,0,6,4.6,6,6l0,0H0V0.8C0,0.4,0.4,0,0.8,0z"/></g>
<g transform="translate(675,555) scale(4.12)"><path d="M5.4,2.8C4.5,1.1,2.6-0.1,1.2,0c-1.3,0.1-1.6,1.6-0.7,3.2c1,1.7,2.8,2.9,4.2,2.8C6.1,5.9,6.4,4.4,5.4,2.8z"/></g>
<g transform="translate(723,555) scale(4.12)"><path d="M5.2,6L5.2,6C3.8,6,0,1.4,0,0l0,0h6v5.2C6,5.6,5.6,6,5.2,6z"/></g>
<g transform="translate(771,555) scale(4.12)"><rect width="6" height="6"/></g>
<g transform="translate(795,555) scale(4.12)"><rect width="6" height="6"/></g>
<g transform="translate(819,555) scale(4.12)"><path d="M0,0h6v4c0,1.1-0.9,2-2,2H0V0z"/></g>
<g transform="translate(99,579) scale(4.12)"><path d="M0.8,0L0.8,0C2.2,0,6,4.6,6,6l0,0H0V0.8C0,0.4,0.4,0,0.8,0z"/></g>
<g transform="translate(147,579) scale(4.12)"><path d="M5.4,2.8C4.5,1.1,2.6-0.1,1.2,0c-1.3,0.1-1.6,1.6-0.7,3.2c1,1.7,2.8,2.9,4.2,2.8C6.1,5.9,6.4,4.4,5.4,2.8z"/></g>
<g transform="translate(195,579) scale(4.12)"><path d="M6,6H0V2c0-1.1,0.9-2,2-2h4V6z"/></g>
<g transform="translate(219,579) scale(4.12)"><rect width="6" height="6"/></g>
<g transform="translate(243,579) scale(4.12)"><path d="M6,0.8L6,0.8C6,2.2,1.4,6,0,6l0,0V0h5.2C5.6,0,6,0.4,6,0.8z"/></g>
<g transform="translate(291,579) scale(4.12)"><path d="M5.4,2.8C4.5,1.1,2.6-0.1,1.2,0c-1.3,0.1-1.6,1.6-0.7,3.2c1,1.7,2.8,2.9,4.2,2.8C6.1,5.9,6.4,4.4,5.4,2.8z"/></g>
<g transform="translate(339,579) scale(4.12)"><path d="M0.8,0L0.8,0C2.2,0,6,4.6,6,6l0,0H0V0.8C0,0.4,0.4,0,0.8,0z"/></g>
<g transform="translate(411,579) scale(4.12)"><rect width="6" height="6"/></g>
<g transform="translate(435,579) scale(4.12)"><rect width="6" height="6"/></g>
<g transform="translate(459,579) scale(4.12)"><path d="M0,6V0h4c1.1,0,2,0.9,2,2v4H0z"/></g>
<g transform="translate(531,579) scale(4.12)"><path d="M5.4,2.8C4.5,1.1,2.6-0.1,1.2,0c-1.3,0.1-1.6,1.6-0.7,3.2c1,1.7,2.8,2.9,4.2,2.8C6.1,5.9,6.4,4.4,5.4,2.8z"/></g>
<g transform="translate(603,579) scale(4.12)"><path d="M6,6H0V2c0-1.1,0.9-2,2-2h4V6z"/></g>
<g transform="translate(627,579) scale(4.12)"><rect width="6" height="6"/></g>
<g transform="translate(747,579) scale(4.12)"><path d="M0,5.2L0,5.2C0,3.8,4.6,0,6,0l0,0v6H0.8C0.4,6,0,5.6,0,5.2z"/></g>
<g transform="translate(771,579) scale(4.12)"><rect width="6" height="6"/></g>
<g transform="translate(795,579) scale(4.12)"><rect width="6" height="6"/></g>
<g transform="translate(99,603) scale(4.12)"><rect width="6" height="6"/></g>
<g transform="translate(123,603) scale(4.12)"><path d="M6,0.8L6,0.8C6,2.2,1.4,6,0,6l0,0V0h5.2C5.6,0,6,0.4,6,0.8z"/></g>
<g transform="translate(195,603) scale(4.12)"><path d="M5.2,6L5.2,6C3.8,6,0,1.4,0,0l0,0h6v5.2C6,5.6,5.6,6,5.2,6z"/></g>
<g transform="translate(267,603) scale(4.12)"><path d="M0.8,0L0.8,0C2.2,0,6,4.6,6,6l0,0H0V0.8C0,0.4,0.4,0,0.8,0z"/></g>
<g transform="translate(315,603) scale(4.12)"><path d="M6,6H0V2c0-1.1,0.9-2,2-2h4V6z"/></g>
<g transform="translate(339,603) scale(4.12)"><rect width="6" height="6"/></g>
<g transform="translate(363,603) scale(4.12)"><path d="M6,0.8L6,0.8C6,2.2,1.4,6,0,6l0,0V0h5.2C5.6,0,6,0.4,6,0.8z"/></g>
<g transform="translate(411,603) scale(4.12)"><path d="M5.2,6L5.2,6C3.8,6,0,1.4,0,0l0,0h6v5.2C6,5.6,5.6,6,5.2,6z"/></g>
<g transform="translate(459,603) scale(4.12)"><path d="M6,0v6H2C0.9,6,0,5.1,0,4V0H6z"/></g>
<g transform="translate(483,603) scale(4.12)"><path d="M6,0.8L6,0.8C6,2.2,1.4,6,0,6l0,0V0h5.2C5.6,0,6,0.4,6,0.8z"/></g>
<g transform="translate(579,603) scale(4.12)"><path d="M0,5.2L0,5.2C0,3.8,4.6,0,6,0l0,0v6H0.8C0.4,6,0,5.6,0,5.2z"/></g>
<g transform="translate(603,603) scale(4.12)"><rect width="6" height="6"/></g>
<g transform="translate(627,603) scale(4.12)"><rect width="6" height="6"/></g>
<g transform="translate(651,603) scale(4.12)"><rect width="6" height="6"/></g>
<g transform="translate(675,603) scale(4.12)"><rect width="6" height="6"/></g>
<g transform="translate(699,603) scale(4.12)"><rect width="6" height="6"/></g>
<g transform="translate(723,603) scale(4.12)"><path d="M0,6V0h4c1.1,0,2,0.9,2,2v4H0z"/></g>
<g transform="translate(795,603) scale(4.12)"><rect width="6" height="6"/></g>
<g transform="translate(867,603) scale(4.12)"><path d="M5.4,2.8C4.5,1.1,2.6-0.1,1.2,0c-1.3,0.1-1.6,1.6-0.7,3.2c1,1.7,2.8,2.9,4.2,2.8C6.1,5.9,6.4,4.4,5.4,2.8z"/></g>
<g transform="translate(99,627) scale(4.12)"><rect width="6" height="6"/></g>
<g transform="translate(171,627) scale(4.12)"><path d="M5.4,2.8C4.5,1.1,2.6-0.1,1.2,0c-1.3,0.1-1.6,1.6-0.7,3.2c1,1.7,2.8,2.9,4.2,2.8C6.1,5.9,6.4,4.4,5.4,2.8z"/></g>
<g transform="translate(243,627) scale(4.12)"><path d="M0,5.2L0,5.2C0,3.8,4.6,0,6,0l0,0v6H0.8C0.4,6,0,5.6,0,5.2z"/></g>
<g transform="translate(267,627) scale(4.12)"><rect width="6" height="6"/></g>
<g transform="translate(291,627) scale(4.12)"><rect width="6" height="6"/></g>
<g transform="translate(315,627) scale(4.12)"><rect width="6" height="6"/></g>
<g transform="translate(387,627) scale(4.12)"><path d="M5.4,2.8C4.5,1.1,2.6-0.1,1.2,0c-1.3,0.1-1.6,1.6-0.7,3.2c1,1.7,2.8,2.9,4.2,2.8C6.1,5.9,6.4,4.4,5.4,2.8z"/></g>
<g transform="translate(435,627) scale(4.12)"><path d="M0.8,0L0.8,0C2.2,0,6,4.6,6,6l0,0H0V0.8C0,0.4,0.4,0,0.8,0z"/></g>
<g transform="translate(531,627) scale(4.12)"><path d="M6,6H0V2c0-1.1,0.9-2,2-2h4V6z"/></g>
<g transform="translate(555,627) scale(4.12)"><path d="M0,6V0h4c1.1,0,2,0.9,2,2v4H0z"/></g>
<g transform="translate(603,627) scale(4.12)"><rect width="6" height="6"/></g>
<g transform="translate(627,627) scale(4.12)"><path d="M0,0h6v4c0,1.1-0.9,2-2,2H0V0z"/></g>
<g transform="translate(675,627) scale(4.12)"><rect width="6" height="6"/></g>
<g transform="translate(699,627) scale(4.12)"><rect width="6" height="6"/></g>
<g transform="translate(723,627) scale(4.12)"><rect width="6" height="6"/></g>
<g transform="translate(771,627) scale(4.12)"><path d="M6,6H0V2c0-1.1,0.9-2,2-2h4V6z"/></g>
<g transform="translate(795,627) scale(4.12)"><rect width="6" height="6"/></g>
<g transform="translate(843,627) scale(4.12)"><path d="M0.8,0L0.8,0C2.2,0,6,4.6,6,6l0,0H0V0.8C0,0.4,0.4,0,0.8,0z"/></g>
<g transform="translate(99,651) scale(4.12)"><rect width="6" height="6"/></g>
<g transform="translate(147,651) scale(4.12)"><path d="M5.4,2.8C4.5,1.1,2.6-0.1,1.2,0c-1.3,0.1-1.6,1.6-0.7,3.2c1,1.7,2.8,2.9,4.2,2.8C6.1,5.9,6.4,4.4,5.4,2.8z"/></g>
<g transform="translate(195,651) scale(4.12)"><path d="M0.8,0L0.8,0C2.2,0,6,4.6,6,6l0,0H0V0.8C0,0.4,0.4,0,0.8,0z"/></g>
<g transform="translate(267,651) scale(4.12)"><rect width="6" height="6"/></g>
<g transform="translate(291,651) scale(4.12)"><rect width="6" height="6"/></g>
<g transform="translate(315,651) scale(4.12)"><rect width="6" height="6"/></g>
<g transform="translate(339,651) scale(4.12)"><path d="M0,6V0h4c1.1,0,2,0.9,2,2v4H0z"/></g>
<g transform="translate(411,651) scale(4.12)"><path d="M6,6H0V2c0-1.1,0.9-2,2-2h4V6z"/></g>
<g transform="translate(435,651) scale(4.12)"><rect width="6" height="6"/></g>
<g transform="translate(483,651) scale(4.12)"><path d="M5.4,2.8C4.5,1.1,2.6-0.1,1.2,0c-1.3,0.1-1.6,1.6-0.7,3.2c1,1.7,2.8,2.9,4.2,2.8C6.1,5.9,6.4,4.4,5.4,2.8z"/></g>
<g transform="translate(531,651) scale(4.12)"><path d="M6,0v6H2C0.9,6,0,5.1,0,4V0H6z"/></g>
<g transform="translate(555,651) scale(4.12)"><rect width="6" height="6"/></g>
<g transform="translate(579,651) scale(4.12)"><rect width="6" height="6"/></g>
<g transform="translate(603,651) scale(4.12)"><path d="M0,0h6v4c0,1.1-0.9,2-2,2H0V0z"/></g>
<g transform="translate(675,651) scale(4.12)"><rect width="6" height="6"/></g>
<g transform="translate(699,651) scale(4.12)"><rect width="6" height="6"/></g>
<g transform="translate(723,651) scale(4.12)"><rect width="6" height="6"/></g>
<g transform="translate(771,651) scale(4.12)"><rect width="6" height="6"/></g>
<g transform="translate(795,651) scale(4.12)"><rect width="6" height="6"/></g>
<g transform="translate(819,651) scale(4.12)"><rect width="6" height="6"/></g>
<g transform="translate(843,651) scale(4.12)"><path d="M0,0h6v4c0,1.1-0.9,2-2,2H0V0z"/></g>
<g transform="translate(99,675) scale(4.12)"><path d="M5.2,6L5.2,6C3.8,6,0,1.4,0,0l0,0h6v5.2C6,5.6,5.6,6,5.2,6z"/></g>
<g transform="translate(171,675) scale(4.12)"><path d="M0,5.2L0,5.2C0,3.8,4.6,0,6,0l0,0v6H0.8C0.4,6,0,5.6,0,5.2z"/></g>
<g transform="translate(195,675) scale(4.12)"><path d="M0,0h6v4c0,1.1-0.9,2-2,2H0V0z"/></g>
<g transform="translate(243,675) scale(4.12)"><path d="M0,5.2L0,5.2C0,3.8,4.6,0,6,0l0,0v6H0.8C0.4,6,0,5.6,0,5.2z"/></g>
<g transform="translate(267,675) scale(4.12)"><path d="M0,0h6v4c0,1.1-0.9,2-2,2H0V0z"/></g>
<g transform="translate(339,675) scale(4.12)"><rect width="6" height="6"/></g>
<g transform="translate(363,675) scale(4.12)"><rect width="6" height="6"/></g>
<g transform="translate(387,675) scale(4.12)"><rect width="6" height="6"/></g>
<g transform="translate(411,675) scale(4.12)"><rect width="6" height="6"/></g>
<g transform="translate(435,675) scale(4.12)"><path d="M0,0h6v4c0,1.1-0.9,2-2,2H0V0z"/></g>
<g transform="translate(507,675) scale(4.12)"><path d="M0.8,0L0.8,0C2.2,0,6,4.6,6,6l0,0H0V0.8C0,0.4,0.4,0,0.8,0z"/></g>
<g transform="translate(555,675) scale(4.12)"><rect width="6" height="6"/></g>
<g transform="translate(579,675) scale(4.12)"><rect width="6" height="6"/></g>
<g transform="translate(675,675) scale(4.12)"><rect width="6" height="6"/></g>
<g transform="translate(699,675) scale(4.12)"><rect width="6" height="6"/></g>
<g transform="translate(723,675) scale(4.12)"><rect width="6" height="6"/></g>
<g transform="translate(747,675) scale(4.12)"><rect width="6" height="6"/></g>
<g transform="translate(771,675) scale(4.12)"><rect width="6" height="6"/></g>
<g transform="translate(795,675) scale(4.12)"><path d="M0,0h6v4c0,1.1-0.9,2-2,2H0V0z"/></g>
<g transform="translate(867,675) scale(4.12)"><path d="M0.8,0L0.8,0C2.2,0,6,4.6,6,6l0,0H0V0.8C0,0.4,0.4,0,0.8,0z"/></g>
<g transform="translate(291,699) scale(4.12)"><path d="M0,5.2L0,5.2C0,3.8,4.6,0,6,0l0,0v6H0.8C0.4,6,0,5.6,0,5.2z"/></g>
<g transform="translate(315,699) scale(4.12)"><rect width="6" height="6"/></g>
<g transform="translate(339,699) scale(4.12)"><rect width="6" height="6"/></g>
<g transform="translate(363,699) scale(4.12)"><rect width="6" height="6"/></g>
<g transform="translate(483,699) scale(4.12)"><path d="M6,6H0V2c0-1.1,0.9-2,2-2h4V6z"/></g>
<g transform="translate(507,699) scale(4.12)"><rect width="6" height="6"/></g>
<g transform="translate(555,699) scale(4.12)"><path d="M6,0v6H2C0.9,6,0,5.1,0,4V0H6z"/></g>
<g transform="translate(579,699) scale(4.12)"><rect width="6" height="6"/></g>
<g transform="translate(603,699) scale(4.12)"><path d="M0,6V0h4c1.1,0,2,0.9,2,2v4H0z"/></g>
<g transform="translate(675,699) scale(4.12)"><rect width="6" height="6"/></g>
<g transform="translate(771,699) scale(4.12)"><rect width="6" height="6"/></g>
<g transform="translate(819,699) scale(4.12)"><path d="M6,6H0V2c0-1.1,0.9-2,2-2h4V6z"/></g>
<g transform="translate(843,699) scale(4.12)"><rect width="6" height="6"/></g>
<g transform="translate(867,699) scale(4.12)"><path d="M0,0h6v4c0,1.1-0.9,2-2,2H0V0z"/></g>
<g transform="translate(315,723) scale(4.12)"><path d="M6,0v6H2C0.9,6,0,5.1,0,4V0H6z"/></g>
<g transform="translate(339,723) scale(4.12)"><rect width="6" height="6"/></g>
<g transform="translate(363,723) scale(4.12)"><rect width="6" height="6"/></g>
<g transform="translate(387,723) scale(4.12)"><rect width="6" height="6"/></g>
<g transform="translate(411,723) scale(4.12)"><rect width="6" height="6"/></g>
<g transform="translate(435,723) scale(4.12)"><rect width="6" height="6"/></g>
<g transform="translate(459,723) scale(4.12)"><rect width="6" height="6"/></g>
<g transform="translate(483,723) scale(4.12)"><rect width="6" height="6"/></g>
<g transform="translate(507,723) scale(4.12)"><rect width="6" height="6"/></g>
<g transform="translate(579,723) scale(4.12)"><path d="M6,0v6H2C0.9,6,0,5.1,0,4V0H6z"/></g>
<g transform="translate(603,723) scale(4.12)"><rect width="6" height="6"/></g>
<g transform="translate(627,723) scale(4.12)"><rect width="6" height="6"/></g>
<g transform="translate(651,723) scale(4.12)"><rect width="6" height="6"/></g>
<g transform="translate(675,723) scale(4.12)"><rect width="6" height="6"/></g>
<g transform="translate(723,723) scale(4.12)"><path d="M5.4,2.8C4.5,1.1,2.6-0.1,1.2,0c-1.3,0.1-1.6,1.6-0.7,3.2c1,1.7,2.8,2.9,4.2,2.8C6.1,5.9,6.4,4.4,5.4,2.8z"/></g>
<g transform="translate(771,723) scale(4.12)"><rect width="6" height="6"/></g>
<g transform="translate(819,723) scale(4.12)"><rect width="6" height="6"/></g>
<g transform="translate(843,723) scale(4.12)"><path d="M0,0h6v4c0,1.1-0.9,2-2,2H0V0z"/></g>
<g transform="translate(291,747) scale(4.12)"><path d="M0.8,0L0.8,0C2.2,0,6,4.6,6,6l0,0H0V0.8C0,0.4,0.4,0,0.8,0z"/></g>
<g transform="translate(363,747) scale(4.12)"><rect width="6" height="6"/></g>
<g transform="translate(411,747) scale(4.12)"><rect width="6" height="6"/></g>
<g transform="translate(435,747) scale(4.12)"><rect width="6" height="6"/></g>
<g transform="translate(483,747) scale(4.12)"><rect width="6" height="6"/></g>
<g transform="translate(507,747) scale(4.12)"><rect width="6" height="6"/></g>
<g transform="translate(531,747) scale(4.12)"><path d="M6,0.8L6,0.8C6,2.2,1.4,6,0,6l0,0V0h5.2C5.6,0,6,0.4,6,0.8z"/></g>
<g transform="translate(603,747) scale(4.12)"><rect width="6" height="6"/></g>
<g transform="translate(651,747) scale(4.12)"><path d="M6,0v6H2C0.9,6,0,5.1,0,4V0H6z"/></g>
<g transform="translate(675,747) scale(4.12)"><rect width="6" height="6"/></g>
<g transform="translate(771,747) scale(4.12)"><rect width="6" height="6"/></g>
<g transform="translate(819,747) scale(4.12)"><path d="M5.2,6L5.2,6C3.8,6,0,1.4,0,0l0,0h6v5.2C6,5.6,5.6,6,5.2,6z"/></g>
<g transform="translate(867,747) scale(4.12)"><path d="M0.8,0L0.8,0C2.2,0,6,4.6,6,6l0,0H0V0.8C0,0.4,0.4,0,0.8,0z"/></g>
<g transform="translate(291,771) scale(4.12)"><rect width="6" height="6"/></g>
<g transform="translate(315,771) scale(4.12)"><path d="M6,0.8L6,0.8C6,2.2,1.4,6,0,6l0,0V0h5.2C5.6,0,6,0.4,6,0.8z"/></g>
<g transform="translate(363,771) scale(4.12)"><rect width="6" height="6"/></g>
<g transform="translate(411,771) scale(4.12)"><rect width="6" height="6"/></g>
<g transform="translate(435,771) scale(4.12)"><rect width="6" height="6"/></g>
<g transform="translate(483,771) scale(4.12)"><path d="M5.2,6L5.2,6C3.8,6,0,1.4,0,0l0,0h6v5.2C6,5.6,5.6,6,5.2,6z"/></g>
<g transform="translate(603,771) scale(4.12)"><path d="M6,0v6H2C0.9,6,0,5.1,0,4V0H6z"/></g>
<g transform="translate(627,771) scale(4.12)"><path d="M6,0.8L6,0.8C6,2.2,1.4,6,0,6l0,0V0h5.2C5.6,0,6,0.4,6,0.8z"/></g>
<g transform="translate(675,771) scale(4.12)"><path d="M6,0v6H2C0.9,6,0,5.1,0,4V0H6z"/></g>
<g transform="translate(699,771) scale(4.12)"><rect width="6" height="6"/></g>
<g transform="translate(723,771) scale(4.12)"><rect width="6" height="6"/></g>
<g transform="translate(747,771) scale(4.12)"><rect width="6" height="6"/></g>
<g transform="translate(771,771) scale(4.12)"><rect width="6" height="6"/></g>
<g transform="translate(795,771) scale(4.12)"><path d="M0,6V0h4c1.1,0,2,0.9,2,2v4H0z"/></g>
<g transform="translate(843,771) scale(4.12)"><path d="M0,5.2L0,5.2C0,3.8,4.6,0,6,0l0,0v6H0.8C0.4,6,0,5.6,0,5.2z"/></g>
<g transform="translate(867,771) scale(4.12)"><rect width="6" height="6"/></g>
<g transform="translate(291,795) scale(4.12)"><rect width="6" height="6"/></g>
<g transform="translate(363,795) scale(4.12)"><rect width="6" height="6"/></g>
<g transform="translate(411,795) scale(4.12)"><path d="M6,0v6H2C0.9,6,0,5.1,0,4V0H6z"/></g>
<g transform="translate(435,795) scale(4.12)"><rect width="6" height="6"/></g>
<g transform="translate(459,795) scale(4.12)"><path d="M0,6V0h4c1.1,0,2,0.9,2,2v4H0z"/></g>
<g transform="translate(531,795) scale(4.12)"><path d="M0.8,0L0.8,0C2.2,0,6,4.6,6,6l0,0H0V0.8C0,0.4,0.4,0,0.8,0z"/></g>
<g transform="translate(651,795) scale(4.12)"><path d="M5.4,2.8C4.5,1.1,2.6-0.1,1.2,0c-1.3,0.1-1.6,1.6-0.7,3.2c1,1.7,2.8,2.9,4.2,2.8C6.1,5.9,6.4,4.4,5.4,2.8z"/></g>
<g transform="translate(699,795) scale(4.12)"><path d="M5.2,6L5.2,6C3.8,6,0,1.4,0,0l0,0h6v5.2C6,5.6,5.6,6,5.2,6z"/></g>
<g transform="translate(747,795) scale(4.12)"><rect width="6" height="6"/></g>
<g transform="translate(771,795) scale(4.12)"><rect width="6" height="6"/></g>
<g transform="translate(795,795) scale(4.12)"><rect width="6" height="6"/></g>
<g transform="translate(819,795) scale(4.12)"><path d="M0,6V0h4c1.1,0,2,0.9,2,2v4H0z"/></g>
<g transform="translate(867,795) scale(4.12)"><path d="M5.2,6L5.2,6C3.8,6,0,1.4,0,0l0,0h6v5.2C6,5.6,5.6,6,5.2,6z"/></g>
<g transform="translate(291,819) scale(4.12)"><path d="M6,0v6H2C0.9,6,0,5.1,0,4V0H6z"/></g>
<g transform="translate(315,819) scale(4.12)"><rect width="6" height="6"/></g>
<g transform="translate(339,819) scale(4.12)"><rect width="6" height="6"/></g>
<g transform="translate(363,819) scale(4.12)"><rect width="6" height="6"/></g>
<g transform="translate(387,819) scale(4.12)"><path d="M0,6V0h4c1.1,0,2,0.9,2,2v4H0z"/></g>
<g transform="translate(435,819) scale(4.12)"><path d="M6,0v6H2C0.9,6,0,5.1,0,4V0H6z"/></g>
<g transform="translate(459,819) scale(4.12)"><rect width="6" height="6"/></g>
<g transform="translate(483,819) scale(4.12)"><rect width="6" height="6"/></g>
<g transform="translate(507,819) scale(4.12)"><rect width="6" height="6"/></g>
<g transform="translate(531,819) scale(4.12)"><rect width="6" height="6"/></g>
<g transform="translate(627,819) scale(4.12)"><path d="M0.8,0L0.8,0C2.2,0,6,4.6,6,6l0,0H0V0.8C0,0.4,0.4,0,0.8,0z"/></g>
<g transform="translate(675,819) scale(4.12)"><path d="M0.8,0L0.8,0C2.2,0,6,4.6,6,6l0,0H0V0.8C0,0.4,0.4,0,0.8,0z"/></g>
<g transform="translate(723,819) scale(4.12)"><path d="M6,6H0V2c0-1.1,0.9-2,2-2h4V6z"/></g>
<g transform="translate(747,819) scale(4.12)"><rect width="6" height="6"/></g>
<g transform="translate(819,819) scale(4.12)"><rect width="6" height="6"/></g>
<g transform="translate(315,843) scale(4.12)"><rect width="6" height="6"/></g>
<g transform="translate(363,843) scale(4.12)"><path d="M6,0v6H2C0.9,6,0,5.1,0,4V0H6z"/></g>
<g transform="translate(387,843) scale(4.12)"><rect width="6" height="6"/></g>
<g transform="translate(411,843) scale(4.12)"><path d="M0,6V0h4c1.1,0,2,0.9,2,2v4H0z"/></g>
<g transform="translate(459,843) scale(4.12)"><rect width="6" height="6"/></g>
<g transform="translate(531,843) scale(4.12)"><path d="M5.2,6L5.2,6C3.8,6,0,1.4,0,0l0,0h6v5.2C6,5.6,5.6,6,5.2,6z"/></g>
<g transform="translate(603,843) scale(4.12)"><path d="M0,5.2L0,5.2C0,3.8,4.6,0,6,0l0,0v6H0.8C0.4,6,0,5.6,0,5.2z"/></g>
<g transform="translate(627,843) scale(4.12)"><rect width="6" height="6"/></g>
<g transform="translate(651,843) scale(4.12)"><rect width="6" height="6"/></g>
<g transform="translate(675,843) scale(4.12)"><rect width="6" height="6"/></g>
<g transform="translate(699,843) scale(4.12)"><rect width="6" height="6"/></g>
<g transform="translate(723,843) scale(4.12)"><rect width="6" height="6"/></g>
<g transform="translate(747,843) scale(4.12)"><rect width="6" height="6"/></g>
<g transform="translate(771,843) scale(4.12)"><rect width="6" height="6"/></g>
<g transform="translate(795,843) scale(4.12)"><rect width="6" height="6"/></g>
<g transform="translate(819,843) scale(4.12)"><path d="M0,0h6v4c0,1.1-0.9,2-2,2H0V0z"/></g>
<g transform="translate(291,867) scale(4.12)"><path d="M0,5.2L0,5.2C0,3.8,4.6,0,6,0l0,0v6H0.8C0.4,6,0,5.6,0,5.2z"/></g>
<g transform="translate(315,867) scale(4.12)"><rect width="6" height="6"/></g>
<g transform="translate(339,867) scale(4.12)"><path d="M6,0.8L6,0.8C6,2.2,1.4,6,0,6l0,0V0h5.2C5.6,0,6,0.4,6,0.8z"/></g>
<g transform="translate(411,867) scale(4.12)"><path d="M6,0v6H2C0.9,6,0,5.1,0,4V0H6z"/></g>
<g transform="translate(435,867) scale(4.12)"><rect width="6" height="6"/></g>
<g transform="translate(459,867) scale(4.12)"><path d="M0,0h6v4c0,1.1-0.9,2-2,2H0V0z"/></g>
<g transform="translate(507,867) scale(4.12)"><path d="M5.4,2.8C4.5,1.1,2.6-0.1,1.2,0c-1.3,0.1-1.6,1.6-0.7,3.2c1,1.7,2.8,2.9,4.2,2.8C6.1,5.9,6.4,4.4,5.4,2.8z"/></g>
<g transform="translate(555,867) scale(4.12)"><path d="M0,5.2L0,5.2C0,3.8,4.6,0,6,0l0,0v6H0.8C0.4,6,0,5.6,0,5.2z"/></g>
<g transform="translate(579,867) scale(4.12)"><path d="M6,0.8L6,0.8C6,2.2,1.4,6,0,6l0,0V0h5.2C5.6,0,6,0.4,6,0.8z"/></g>
<g transform="translate(627,867) scale(4.12)"><path d="M5.2,6L5.2,6C3.8,6,0,1.4,0,0l0,0h6v5.2C6,5.6,5.6,6,5.2,6z"/></g>
<g transform="translate(675,867) scale(4.12)"><path d="M6,0v6H2C0.9,6,0,5.1,0,4V0H6z"/></g>
<g transform="translate(699,867) scale(4.12)"><path d="M0,0h6v4c0,1.1-0.9,2-2,2H0V0z"/></g>
<g transform="translate(747,867) scale(4.12)"><path d="M6,0v6H2C0.9,6,0,5.1,0,4V0H6z"/></g>
<g transform="translate(771,867) scale(4.12)"><path d="M0,0h6v4c0,1.1-0.9,2-2,2H0V0z"/></g>
<g transform="translate(843,867) scale(4.12)"><path d="M5.4,2.8C4.5,1.1,2.6-0.1,1.2,0c-1.3,0.1-1.6,1.6-0.7,3.2c1,1.7,2.8,2.9,4.2,2.8C6.1,5.9,6.4,4.4,5.4,2.8z"/></g>
</g></g></mask></defs>
<rect width="916.575" height="916.575" fill="#ffffff" x="41.25" y="41.25" />
<rect x="0" y="0" width="990" height="1155" mask="url(#qrmask)" fill="url(#pattern-mask)" />
<g><g transform="translate(99,99)"  fill="#e23f3f"><g transform="scale(12)"><path d="M0,0l0,7c0,3.9,3.1,7,7,7h7V7c0-3.9-3.1-7-7-7H0z M7,12L7,12c-2.8,0-5-2.2-5-5V2h5c2.8,0,5,2.2,5,5v0C12,9.8,9.8,12,7,12z"/></g></g>
<g transform="translate(723,99)"  fill="#000000"><g transform="scale(12) rotate(90 7 7)"><path d="M0,0l0,7c0,3.9,3.1,7,7,7h7V7c0-3.9-3.1-7-7-7H0z M7,12L7,12c-2.8,0-5-2.2-5-5V2h5c2.8,0,5,2.2,5,5v0C12,9.8,9.8,12,7,12z"/></g></g>
<g transform="translate(99,723)"  fill="#000000"><g transform="scale(12) rotate(-90 7 7)"><path d="M0,0l0,7c0,3.9,3.1,7,7,7h7V7c0-3.9-3.1-7-7-7H0z M7,12L7,12c-2.8,0-5-2.2-5-5V2h5c2.8,0,5,2.2,5,5v0C12,9.8,9.8,12,7,12z"/></g></g>
<g transform="translate(147,147)"  fill="#32ad53"><g transform="scale(12)"><path d="M3.2,0.3l0.6,1.3C4,1.8,4.1,1.9,4.3,1.9l1.4,0.2c0.2,0,0.3,0.3,0.2,0.5l-1,1C4.7,3.7,4.7,3.9,4.7,4.1L5,5.5 c0,0.2-0.2,0.4-0.4,0.3L3.3,5.2c-0.2-0.1-0.4-0.1-0.6,0L1.4,5.8C1.2,5.9,1,5.8,1,5.5l0.2-1.4c0-0.2,0-0.4-0.2-0.5l-1-1 C-0.1,2.4,0,2.2,0.2,2.1l1.4-0.2c0.2,0,0.4-0.2,0.5-0.3l0.6-1.3C2.9,0.1,3.1,0.1,3.2,0.3z"/></g></g>
<g transform="translate(771,147)"  fill="#000000"><g transform="scale(12)"><path d="M3.2,0.3l0.6,1.3C4,1.8,4.1,1.9,4.3,1.9l1.4,0.2c0.2,0,0.3,0.3,0.2,0.5l-1,1C4.7,3.7,4.7,3.9,4.7,4.1L5,5.5 c0,0.2-0.2,0.4-0.4,0.3L3.3,5.2c-0.2-0.1-0.4-0.1-0.6,0L1.4,5.8C1.2,5.9,1,5.8,1,5.5l0.2-1.4c0-0.2,0-0.4-0.2-0.5l-1-1 C-0.1,2.4,0,2.2,0.2,2.1l1.4-0.2c0.2,0,0.4-0.2,0.5-0.3l0.6-1.3C2.9,0.1,3.1,0.1,3.2,0.3z"/></g></g>
<g transform="translate(147,771)"  fill="#000000"><g transform="scale(12)"><path d="M3.2,0.3l0.6,1.3C4,1.8,4.1,1.9,4.3,1.9l1.4,0.2c0.2,0,0.3,0.3,0.2,0.5l-1,1C4.7,3.7,4.7,3.9,4.7,4.1L5,5.5 c0,0.2-0.2,0.4-0.4,0.3L3.3,5.2c-0.2-0.1-0.4-0.1-0.6,0L1.4,5.8C1.2,5.9,1,5.8,1,5.5l0.2-1.4c0-0.2,0-0.4-0.2-0.5l-1-1 C-0.1,2.4,0,2.2,0.2,2.1l1.4-0.2c0.2,0,0.4-0.2,0.5-0.3l0.6-1.3C2.9,0.1,3.1,0.1,3.2,0.3z"/></g></g></g>
<g transform="translate(199.5125,935) scale(1.375)"><path fill="#FFFFFF" d="M32.5,118.9q5,0,8.85-2.7t3.85-8.15t-4.15-8.35t-11.8-5.05t-11.1-3.75t-6.55-4.2q-6.2-5.2-6.2-16.1q0-8.9,6.35-15.3t17.35-6.4q5.3,0,11.05,1.55t7.15,1.55t2.5-2l1.1,0l0.7,20.2l-1.6,0q-4.8-8.7-10.05-13.95t-11.4-5.25t-9.55,2.85t-3.4,7.6t4.05,7.3t9.95,4.15t7.75,2.2t4.6,1.65t4.5,2.2t3.7,2.9t3.05,3.85q2.7,4.8,2.7,11.4q0,10.8-6.75,17.35t-17.75,6.55q-5.7,0-13.05-1.5t-8.15-1.5q-1.4,0-2.7,3l-1.4,0l-1-23.8l1.7,0q4.4,8.7,11.25,15.2t14.45,6.5z M100,50.9q-15.5,0-15.5,29.9l0,7.9q0,14.2,4.1,22.25t12.1,8.05q11,0,20.2-21.4l1.8,0l-0.7,22.3l-1.1,0q-0.6-1.1-1.1-1.55t-1.45-0.45t-7.25,1.55t-12.8,1.55q-16.3,0-25.25-8.8t-8.95-26.45t9.35-27.25t25.15-9.6q6.1,0,11.95,1.55t6.85,1.55t1.5-0.45t1.1-1.55l1.1,0l0.8,21.7l-1.8,0q-4.5-10.1-9.25-15.45t-10.85-5.35z M172.2,118.1l-7.3-21.6l-19.8,0l-7.7,21.6l7.5,0l0,1.9l-15.3,0l0-1.9l4.7,0l25.5-68.7l8.2,0l25.2,68.7l4.6,0l0,1.9l-32.7,0l0-1.9l7.1,0z M155.4,68.1l-9.4,26.2l18.1,0z M257.4,51.9l0,68.1l-14,0l-34.3-64.7l0,62.8l5.5,0l0,1.9l-13.7,0l0-1.9l5.5,0l0-66.2l-5.5,0l0-1.9l27.6,0l26.2,50.2l0-48.3l-5.5,0l0-1.9l13.7,0l0,1.9l-5.5,0z  M338.2,50l26.7,0l0,1.9l-5.5,0l0,66.2l5.5,0l0,1.9l-30.5,0l0-1.9l5.5,0l0-62.5l-0.4,0l-15,64.4l-12.5,0l-17.6-64.7l-0.4,0l0,62.8l5.5,0l0,1.9l-13.6,0l0-1.9l5.5,0l0-66.2l-5.5,0l0-1.9l27,0l13.3,51.5z M369.5,50l52,0l1,19.8l-1.8,0q-4.2-10.1-8.8-13.85t-13.5-3.75l-3.5,0l0,30.9l3.4,0q4.7,0,7.9-3.55t4.5-9.55l1.5,0l0,29.6l-1.7,0q-1.8-7.5-4.85-10.7t-8.35-3.2l-2.4,0l0,32.1l3.8,0q9.2,0,15.65-5.5t8.85-14.1l2,0l-0.8,21.8l-54.9,0l0-2.2l5.9,0l0-65.6l-5.9,0l0-2.2z"/></g></svg>